# xmcd
#
# Track frame offsets:
#	150
#	18070
#	36945
#	51700
#	69613
#	83893
#	101875
#	115225
#	132990
#	152183
#	172713
#
# Disc length: 2540 seconds
#
# Revision: 0
# Processed by: cddbd v1.4PL0 Copyright (c) Steve Scherf et al.
# Submitted via: dBpowerAMP V4.0
#
DISCID=9209ea0b
DTITLE=hothits - Country Hits
DYEAR=1900
DGENRE=
TTITLE0=Amazed M. Green
TTITLE1=Anyone Else R. Foster
TTITLE2=God Must Have Spent A Little More Time On You C. Sturken
TTITLE3=Love Ain't Like That T. Gaetano
TTITLE4=How Forever Feels W. Mobley
TTITLE5=Lesson In Leavin' R. Goodrum
TTITLE6=Can't Get Enough B. Daly
TTITLE7=Man! I Feel Like A Woman S. Twain
TTITLE8=One Honest Heart D. Malloy
TTITLE9=Please Remember Me R. Crowell
TTITLE10=On The Side Of Angels Co. Con- Red Brazos
EXTD=Country Hits\n
EXTT0=
EXTT1=
EXTT2=
EXTT3=
EXTT4=
EXTT5=
EXTT6=
EXTT7=
EXTT8=
EXTT9=
EXTT10=
PLAYORDER=
